<?xml version="1.0"?><svg width="500" height="500" xmlns="http://www.w3.org/2000/svg">
 <title>Brown paisely swirl</title>

 <metadata id="metadata2838">image/svg+xml</metadata>
 <g>
  <title>Layer 1</title>
  <g id="layer1">
   <g id="g2929" transform="matrix(0.739226, 0, 0, 0.739226, -28.0672, -36.9367)">
    <path clip-rule="evenodd" d="m335.291656,317.070953c-14.30603,-20.30658 -12.96814,-49.421936 8.742554,-70.298111c21.710693,-20.876144 58.151245,-20.412537 80.524231,9.802322c22.730652,30.704895 21.657715,83.690063 -12.160095,116.27594c-33.831055,32.599121 -89.995361,30.387024 -122.766663,-17.326172c-31.976563,-46.56073 -28.18811,-123.548203 20.836426,-170.678513c48.971558,-47.077347 131.681396,-47.103836 183.779114,20.611237c54.071381,70.271622 53.47525,194.296646 -25.790527,270.754288c-50.667114,48.89212 -278.092743,105.467072 -407.164673,-0.96698l-0.052979,-1.496826c137.403839,108.328278 350.973816,30.69165 396.859009,-13.564209c71.794952,-69.238403 72.629425,-181.606689 23.790344,-245.520096c-47.223022,-61.793976 -122.514954,-61.939697 -167.141724,-19.034927c-44.666626,42.944473 -48.017883,113.096893 -18.849487,155.432037c29.830627,43.288879 80.842041,45.222839 111.547058,15.64386c30.69165,-29.578979 31.724854,-77.67627 11.113647,-105.599426c-20.30658,-27.512589 -53.448853,-27.976212 -73.199036,-8.981003c-19.750244,19.008408 -20.968933,45.050644 -7.93457,63.515976c13.153564,18.650757 12.332336,21.962341 -2.132629,1.430603z" id="path5" fill-rule="evenodd" fill="#eea820"/>
    <path clip-rule="evenodd" d="m477.278717,577.240173c-2.026672,12.37207 6.119751,27.499329 20.584717,32.135498c14.451752,4.622986 30.863861,-3.6427 34.374115,-22.240479c3.563293,-18.902466 -8.557068,-42.653076 -31.089081,-49.991516c-22.611389,-7.351746 -47.752808,6.066772 -52.124084,35.009949c-4.252075,28.2146 14.544434,62.244324 47.236267,72.629395c32.546112,10.345398 69.927155,-7.974243 78.669769,-49.951782c9.060425,-43.606812 -18.293152,-99.651947 -71.092926,-117.044281c-33.923706,-11.179871 -60.548767,-5.483948 -85.677002,16.067688l6.848328,7.974304c22.823364,-19.432312 46.931641,-24.558594 77.64978,-14.451721c47.832367,15.723389 72.775116,66.430267 64.681671,106.023468c-7.828552,38.268494 -41.831848,55.011841 -71.50351,45.567261c-29.790894,-9.47113 -46.878662,-40.507202 -42.957764,-66.178528c4.013672,-26.28064 26.850281,-38.42749 47.368774,-31.751343c20.452301,6.649597 31.48642,28.201355 28.280853,45.381775c-3.165894,16.915527 -18.094452,24.452698 -31.234772,20.240356c-13.180054,-4.212341 -20.584717,-17.988464 -18.730286,-29.247803c1.867737,-11.364014 0.755066,-12.68866 -1.284851,-0.172241z" id="path7" fill-rule="evenodd" fill="#eea820"/>
    <path clip-rule="evenodd" d="m301.475189,567.796875c-8.093506,1.112732 -15.988281,9.126709 -16.147217,19.087952c-0.172241,9.947937 8.0802,18.650757 20.319824,17.273132c12.438232,-1.404053 24.969238,-13.590698 25.28717,-29.128601c0.331116,-15.577637 -12.742981,-28.75769 -31.592468,-25.922974c-18.399109,2.755249 -36.056396,21.101318 -36.374329,43.593567c-0.317871,22.399475 18.107727,42.29541 45.911682,39.685913c28.876953,-2.702271 58.641357,-30.651978 59.542114,-67.092529c0.582825,-23.419434 -7.96106,-39.010315 -26.121704,-50.614075l-3.66925,5.828369c16.398926,10.570557 24.121521,24.691101 23.604919,45.885193c-0.808044,33.02301 -27.697998,58.429382 -53.89917,60.972656c-25.300415,2.463806 -42.12323,-15.630615 -41.831787,-36.056396c0.304626,-20.492004 16.425415,-37.182373 33.155457,-39.672668c17.127441,-2.543274 28.98291,9.431396 28.691467,23.57843c-0.291382,14.1073 -11.643494,25.181213 -22.955811,26.466064c-11.126892,1.284912 -18.637573,-6.623108 -18.491821,-15.683594c0.158936,-9.060486 7.351685,-16.359192 14.703369,-17.365906c7.431152,-1.021301 8.052429,-1.961792 -0.132446,-0.834534z" id="path9" fill-rule="evenodd" fill="#eea820"/>
    <path clip-rule="evenodd" d="m241.997986,488.014374c3.377838,-4.583191 3.192413,-12.398499 -1.735229,-17.259888c-4.914368,-4.848145 -13.286041,-4.887878 -18.54483,1.907471c-5.338226,6.914551 -5.311737,19.034912 2.33136,26.664734c7.669586,7.643127 20.637726,7.404724 28.373566,-3.417542c7.550385,-10.544006 6.927765,-28.201294 -4.212311,-39.156006c-11.087158,-10.901672 -30.042633,-11.20636 -42.242462,3.987122c-12.663452,15.776367 -13.100586,44.110168 4.755432,62.05899c11.471283,11.524231 23.459167,14.716614 38.096344,11.179871l-1.139191,-4.649475c-13.272766,3.165894 -24.12149,0.251709 -34.506592,-10.173157c-16.186981,-16.240021 -15.86908,-41.911346 -4.411011,-56.270294c11.060669,-13.882141 28.320557,-13.630432 38.42749,-3.682495c10.146667,9.974487 10.689728,26.068726 3.801697,35.658997c-7.047028,9.802246 -18.822998,10.000977 -25.777283,3.07312c-6.941071,-6.914551 -6.980804,-17.92218 -2.13269,-24.214172c4.768677,-6.19928 12.385315,-6.172791 16.862549,-1.748535c4.477264,4.424316 4.649475,11.537537 1.576324,15.710083c-3.09964,4.212341 -2.92746,4.980652 0.476837,0.331177z" id="path11" fill-rule="evenodd" fill="#eea820"/>
    <path clip-rule="evenodd" d="m381.23111,358.505341c7.484192,-7.960999 18.015015,-35.301331 17.339417,-50.759766c-1.019958,-23.313477 -13.219788,-25.817078 -25.088501,-25.472656c-15.895508,0.450378 -19.68396,4.490479 -19.101135,16.23999c0.978882,19.483948 37.896301,44.214783 26.85022,59.992432z" id="path13" fill-rule="evenodd" fill="#eea820"/>
    <path clip-rule="evenodd" d="m463.065399,371.420502c5.616455,15.339233 -13.14032,56.866333 -28.029114,73.543457c-22.055115,24.691101 -41.38147,21.657654 -53.395813,10.544067c-15.922058,-14.743164 -16.332703,-22.505493 -5.6297,-34.824524c18.001709,-20.730469 84.419983,-20.970215 87.054626,-49.263z" id="path15" fill-rule="evenodd" fill="#eea820"/>
    <path clip-rule="evenodd" d="m466.072357,191.602036c-9.219421,-5.709167 -26.426392,-29.247833 -29.790955,-44.149902c-5.020325,-22.21405 4.450745,-32.214996 15.577637,-34.864258c14.809387,-3.510269 31.48645,4.225571 21.935913,10.305634c-18.981995,12.080597 -22.412781,56.374893 -7.722595,68.708527z" id="path17" fill-rule="evenodd" fill="#eea820"/>
    <path clip-rule="evenodd" d="m495.306915,208.491058c-6.59668,-4.119598 -18.889221,-21.088104 -21.300049,-31.844101c-3.576477,-16.014771 3.192322,-23.233994 11.140137,-25.141464c10.583801,-2.530045 22.505432,3.046646 15.670349,7.431168c-13.562866,8.714737 -16.014771,40.666122 -5.510437,49.554398z" id="path19" fill-rule="evenodd" fill="#eea820"/>
    <path clip-rule="evenodd" d="m574.162109,576.075806c-1.616028,4.689209 -0.768311,18.147461 2.516785,24.558655c4.927612,9.643311 11.444824,10.477844 16.266479,8.093506c6.397949,-3.139404 9.961182,-10.888489 4.715637,-10.279114c-10.491028,1.23053 -25.101685,-13.750977 -23.498901,-22.373047z" id="path21" fill-rule="evenodd" fill="#eea820"/>
    <path clip-rule="evenodd" d="m220.472778,452.461334c3.033417,-0.450378 10.080444,-4.530212 12.557495,-7.841797c3.576477,-4.808411 2.291626,-8.146484 -0.132446,-9.906921c-3.218872,-2.33136 -8.093506,-2.265076 -6.437714,0.119263c3.324799,4.81897 -0.781525,16.092896 -5.987335,17.629456z" id="path23" fill-rule="evenodd" fill="#eea820"/>
    <path clip-rule="evenodd" d="m542.953857,392.454315c21.7901,3.881165 79.848633,-8.265686 105.202026,-26.108459c37.765198,-26.558838 37.169128,-54.442261 24.068542,-73.516968c-17.498352,-25.472595 -28.161621,-27.486023 -47.090576,-14.398682c-31.751343,21.950378 -43.103455,115.336792 -82.179993,114.024109z" id="path25" fill-rule="evenodd" fill="#eea820"/>
    <path clip-rule="evenodd" d="m508.023346,451.520844c13.127106,12.358826 58.416168,29.883667 83.941803,28.890198c38.109558,-1.483582 50.229919,-21.07489 49.686829,-40.136292c-0.715271,-25.353394 -7.192749,-31.459961 -26.121704,-30.824158c-31.671875,1.086243 -81.398499,60.363403 -107.506927,42.070251z" id="path27" fill-rule="evenodd" fill="#eea820"/>
    <path clip-rule="evenodd" d="m511.772003,220.980988c0,-4.159332 3.364594,-7.523895 7.510712,-7.523895c4.146057,0 7.51062,3.364563 7.51062,7.523895c0,4.159332 -3.364563,7.523911 -7.51062,7.523911c-4.146118,0 -7.510712,-3.363251 -7.510712,-7.523911z" id="path29" fill-rule="evenodd" fill="#eea820"/>
    <path clip-rule="evenodd" d="m525.203796,241.777664c0,-4.159332 3.364563,-7.523895 7.51062,-7.523895c4.146118,0 7.510681,3.364563 7.510681,7.523895c0,4.159332 -3.364563,7.523895 -7.510681,7.523895c-4.146057,0 -7.51062,-3.36322 -7.51062,-7.523895z" id="path31" fill-rule="evenodd" fill="#eea820"/>
    <path clip-rule="evenodd" d="m528.54187,267.529816c0,-4.159302 3.364563,-7.523865 7.51062,-7.523865c4.146118,0 7.510681,3.364563 7.510681,7.523865c0,4.159302 -3.364563,7.523865 -7.510681,7.523865c-4.146057,0 -7.51062,-3.365845 -7.51062,-7.523865z" id="path33" fill-rule="evenodd" fill="#eea820"/>
    <path clip-rule="evenodd" d="m333.914032,634.412537c2.212158,2.344604 2.10614,6.040283 -0.225159,8.239197c-2.33136,2.198853 -6.013855,2.092896 -8.225952,-0.264954c-2.212158,-2.344543 -2.119446,-6.027039 0.211914,-8.225952c2.344604,-2.212097 6.0271,-2.092896 8.239197,0.251709z" id="path35" fill-rule="evenodd" fill="#eea820"/>
    <path clip-rule="evenodd" d="m313.859161,643.193481c2.212097,2.344604 2.10614,6.040344 -0.22522,8.239197c-2.33136,2.198914 -6.013794,2.079712 -8.225952,-0.264893c-2.212097,-2.344604 -2.119385,-6.0271 0.22522,-8.239197c2.331299,-2.197571 6.013794,-2.079712 8.225952,0.264893z" id="path37" fill-rule="evenodd" fill="#eea820"/>
    <path clip-rule="evenodd" d="m293.738007,638.914917c2.212158,2.344604 2.119446,6.0271 -0.211914,8.225952c-2.345947,2.212158 -6.0271,2.092957 -8.239197,-0.251648c-2.212158,-2.344604 -2.106201,-6.040344 0.225159,-8.239197c2.332703,-2.197571 6.013794,-2.091614 8.225952,0.264893z" id="path39" fill-rule="evenodd" fill="#eea820"/>
    <path clip-rule="evenodd" d="m625.994873,484.398163c2.212097,2.344604 2.10614,6.040283 -0.22522,8.239197c-2.33136,2.198853 -6.013794,2.092896 -8.225952,-0.264954c-2.212097,-2.344604 -2.119385,-6.027039 0.211975,-8.225952c2.344604,-2.212097 6.027039,-2.092896 8.239197,0.251709z" id="path41" fill-rule="evenodd" fill="#eea820"/>
    <path clip-rule="evenodd" d="m605.939941,493.179108c2.212158,2.344604 2.106201,6.040283 -0.225159,8.239197c-2.33136,2.198914 -6.013794,2.079651 -8.225952,-0.264954c-2.212158,-2.344543 -2.119385,-6.027039 0.22522,-8.239197c2.331299,-2.19751 6.013794,-2.079651 8.225891,0.264954z" id="path43" fill-rule="evenodd" fill="#eea820"/>
    <path clip-rule="evenodd" d="m585.818848,488.900543c2.212097,2.344604 2.119385,6.0271 -0.211975,8.225952c-2.345886,2.212158 -6.027039,2.092896 -8.239197,-0.251648c-2.212097,-2.344604 -2.10614,-6.040344 0.22522,-8.239197c2.332642,-2.197571 6.013794,-2.091614 8.225952,0.264893z" id="path45" fill-rule="evenodd" fill="#eea820"/>
    <path clip-rule="evenodd" d="m188.045837,490.769623c-2.635986,0.900757 -5.470703,-0.423889 -6.331726,-2.967163c-0.861023,-2.543335 0.56958,-5.325012 3.205627,-6.225769c2.622742,-0.900757 5.457458,0.437134 6.318481,2.980408c0.874237,2.528687 -0.556335,5.310425 -3.192383,6.212524z" id="path47" fill-rule="evenodd" fill="#eea820"/>
    <path clip-rule="evenodd" d="m188.524048,472.410248c-2.636017,0.887512 -5.470734,-0.437134 -6.331726,-2.980408c-0.861023,-2.530029 0.56958,-5.325012 3.205597,-6.212524c2.622772,-0.900696 5.457489,0.423889 6.318481,2.967224c0.872925,2.530029 -0.557678,5.324951 -3.192352,6.225708z" id="path49" fill-rule="evenodd" fill="#eea820"/>
    <path clip-rule="evenodd" d="m199.185974,458.434113c-2.635986,0.900757 -5.470703,-0.437134 -6.331726,-2.967163c-0.861023,-2.543274 0.56958,-5.325012 3.205627,-6.225769c2.622742,-0.900757 5.457458,0.423889 6.318481,2.967163c0.874237,2.544617 -0.556366,5.325012 -3.192383,6.225769z" id="path51" fill-rule="evenodd" fill="#eea820"/>
    <path clip-rule="evenodd" d="m680.384155,347.94809c3.006897,0.794739 4.901123,3.894409 4.26532,6.954285c-0.649109,3.07312 -3.629517,4.967346 -6.662903,4.199097c-3.059875,-0.755066 -4.993835,-3.907654 -4.318298,-7.007324c0.690125,-3.086365 3.69574,-4.940857 6.715881,-4.146057z" id="path53" fill-rule="evenodd" fill="#eea820"/>
    <path clip-rule="evenodd" d="m668.992371,366.174957c3.112854,0.741821 5.073303,3.907654 4.384521,7.073547c-0.688843,3.192322 -3.788452,5.205811 -6.941101,4.503723c-3.165833,-0.715271 -5.166077,-3.934143 -4.4375,-7.153015c0.728577,-3.206909 3.86792,-5.17926 6.99408,-4.424255z" id="path55" fill-rule="evenodd" fill="#eea820"/>
    <path clip-rule="evenodd" d="m649.533508,374.015472c3.258606,0.728516 5.285278,3.973877 4.530273,7.245728c-0.755066,3.29834 -4.026917,5.417725 -7.33844,4.715637c-3.324829,-0.715271 -5.391296,-4.000366 -4.596497,-7.325195c0.7948,-3.311523 4.119568,-5.389893 7.404663,-4.636169z" id="path57" fill-rule="evenodd" fill="#eea820"/>
    <path clip-rule="evenodd" d="m578.612854,624.211548c3.059875,1.099426 4.702454,4.4375 3.66925,7.444458c-1.046509,3.006897 -4.371277,4.556702 -7.431213,3.444031c-3.059875,-1.099487 -4.702393,-4.424316 -3.669189,-7.444458c1.033203,-3.006897 4.358032,-4.543457 7.431152,-3.444031z" id="path59" fill-rule="evenodd" fill="#eea820"/>
    <path clip-rule="evenodd" d="m563.935974,641.021118c3.059875,1.099426 4.702393,4.4375 3.669189,7.444397c-1.046448,3.006897 -4.358032,4.543457 -7.431152,3.444031c-3.059875,-1.099426 -4.702454,-4.4375 -3.669189,-7.444397c1.033203,-3.006897 4.357971,-4.556763 7.431152,-3.444031z" id="path61" fill-rule="evenodd" fill="#eea820"/>
    <path clip-rule="evenodd" d="m543.073059,650.162354c3.059875,1.112732 4.702393,4.437561 3.669189,7.457703c-1.033203,3.006897 -4.358032,4.543457 -7.431152,3.444031c-3.059875,-1.099487 -4.702454,-4.4375 -3.66925,-7.444458c1.046448,-3.006897 4.371277,-4.556702 7.431213,-3.457275z" id="path63" fill-rule="evenodd" fill="#eea820"/>
   </g>
  </g>
 </g>
</svg>